<svg xmlns="http://www.w3.org/2000/svg" id="Layer_1" data-name="Layer 1" viewBox="0 0 43 43"><defs><style>.cls-1,.cls-8{fill:none}.cls-1{stroke:#dee4f4}.cls-2{fill:#ff7e00}.cls-3{fill:#f36f00}.cls-4{fill:#ccd2e0}.cls-5{fill:#443c3a}.cls-6{fill:#f16f00}.cls-7{fill:#7e3a06}</style></defs><title>od_metamask2</title><circle cx="21.5" cy="21.5" r="21" class="cls-1"/><path d="M22,14.84h3.13l7.13-3.34L33.56,15,33,18.59l.58.42-.73.56.58.42-.73.56.44.28-1,1.25,1.89,5L32.69,32.5,27,30.55l-1.16.56-2.11.3H20.26l-2.11-.3L17,30.55,11.31,32.5,10,27.08l1.89-5-1-1.25.44-.28L10.58,20l.58-.42L10.44,19l.58-.42L10.44,15l1.31-3.48,7.13,3.34Z" class="cls-2" transform="translate(-0.5 -0.5)"/><polygon points="21.86 30.91 19.76 30.91 17.64 30.61 16.48 30.05 10.81 32 9.5 26.58 14.01 26.02 17.06 25.88 19.97 26.85 20.55 26.3 21.86 26.3 21.86 30.91" class="cls-3"/><polygon points="21.14 30.91 23.24 30.91 25.35 30.61 26.52 30.05 32.19 32 33.5 26.58 28.99 26.02 25.94 25.88 23.03 26.85 22.45 26.3 21.14 26.3 21.14 30.91" class="cls-3"/><path d="M22,27h.95l.58.56a29,29,0,0,0,.33,3.16A26.77,26.77,0,0,0,27,30.55l-1.16.76-2.11.3H20.26l-2.11-.3L17,30.55a26.77,26.77,0,0,0,3.16.17,29,29,0,0,0,.33-3.16l.58-.56Z" class="cls-4" transform="translate(-0.5 -0.5)"/><path d="M22,29.16h1.39l.43.56-.29-2.36-.58-.56H21.05l-.58.56-.29,2.36.43-.56Z" class="cls-5" transform="translate(-0.5 -0.5)"/><polygon points="26.66 20.32 31.61 21.57 32.63 20.32 32.19 20.04 32.92 19.48 32.34 19.07 33.06 18.51 32.48 18.09 33.06 14.48 31.75 11 24.63 14.34 23.17 17.4 22.59 25.88 23.17 24.49 25.94 23.93 25.94 25.46 27.97 21.85 26.66 20.32" class="cls-6"/><polygon points="16.34 20.32 11.39 21.57 10.37 20.32 10.81 20.04 10.08 19.48 10.66 19.07 9.94 18.51 10.52 18.09 9.94 14.48 11.24 11 18.37 14.34 19.83 17.4 20.41 25.88 19.83 24.49 17.06 23.93 17.06 25.46 15.03 21.85 16.34 20.32" class="cls-6"/><polygon points="20.12 21.85 19.83 24.49 17.06 23.93 17.06 25.46 15.03 21.85 20.12 21.85" class="cls-6"/><polygon points="22.88 21.85 23.17 24.49 25.94 23.93 25.94 25.46 27.97 21.85 22.88 21.85" class="cls-6"/><polygon points="24.19 22.96 23.17 24.49 26.23 23.93 24.19 22.96" class="cls-5"/><polygon points="31.61 21.57 32.63 20.32 32.19 20.04 32.92 19.48 32.34 19.07 33.06 18.51 32.48 18.09 33.06 14.48 31.75 11 23.17 17.4 26.66 20.32 31.61 21.57" class="cls-7"/><polygon points="26.52 30.05 28.99 26.02 25.94 25.88 26.52 30.05" class="cls-8"/><polygon points="16.48 30.05 14.01 26.02 17.06 25.88 16.48 30.05" class="cls-8"/><polygon points="18.81 22.96 19.83 24.49 16.77 23.93 18.81 22.96" class="cls-5"/><polygon points="11.39 21.57 10.37 20.32 10.81 20.04 10.08 19.48 10.66 19.07 9.94 18.51 10.52 18.09 9.94 14.48 11.24 11 19.83 17.4 16.34 20.32 11.39 21.57" class="cls-7"/></svg>