<svg xmlns="http://www.w3.org/2000/svg" xmlns:xlink="http://www.w3.org/1999/xlink" width="20" height="20" version="1.1" viewBox="0 0 20 20" style="background:#fff"><title>oasis-direct-finalize copy 3</title><desc>Created with Sketch.</desc><g id="Page-1-Copy" fill="none" fill-rule="evenodd" stroke="none" stroke-width="1"><g id="oasis-direct-finalize-copy-3"><polygon id="Shape" points="-1 -1 21 -1 21 21 -1 21"/><path id="Shape" fill="#FFF" fill-rule="nonzero" stroke="#9C9C9D" d="M10,0.833333333 C4.94,0.833333333 0.833333333,4.94 0.833333333,10 C0.833333333,15.06 4.94,19.1666667 10,19.1666667 C15.06,19.1666667 19.1666667,15.06 19.1666667,10 C19.1666667,4.94 15.06,0.833333333 10,0.833333333 Z"/><path id="Combined-Shape" fill="#9C9C9D" d="M10.75,15 L9.25,15 L9.25,13.5714286 L10.75,13.5714286 L10.75,15 Z M12.3025,9.46428571 L11.6275,10.1214286 C11.0875,10.6428571 10.75,11.0714286 10.75,12.1428571 L9.25,12.1428571 L9.25,11.7857143 C9.25,11 9.5875,10.2857143 10.1275,9.76428571 L11.0575,8.86428571 C11.335,8.60714286 11.5,8.25 11.5,7.85714286 C11.5,7.07142857 10.825,6.42857143 10,6.42857143 C9.175,6.42857143 8.5,7.07142857 8.5,7.85714286 L7,7.85714286 C7,6.27857143 8.3425,5 10,5 C11.6575,5 13,6.27857143 13,7.85714286 C13,8.48571429 12.73,9.05714286 12.3025,9.46428571 Z"/></g></g></svg>